<svg width="44" height="58" viewBox="0 0 44 58" fill="none" xmlns="http://www.w3.org/2000/svg">
<g clip-path="url(#clip0_67_12)">
<g filter="url(#filter0_d_67_12)">
<path d="M17 49H6.22727V14.0909H17.4773C20.8636 14.0909 23.7614 14.7898 26.1705 16.1875C28.5795 17.5739 30.4261 19.5682 31.7102 22.1705C32.9943 24.7614 33.6364 27.8636 33.6364 31.4773C33.6364 35.1136 32.9886 38.2443 31.6932 40.8693C30.3977 43.483 28.5114 45.4943 26.0341 46.9034C23.5568 48.3011 20.5455 49 17 49ZM10.4545 45.25H16.7273C19.6136 45.25 22.0057 44.6932 23.9034 43.5795C25.8011 42.4659 27.2159 40.8807 28.1477 38.8239C29.0795 36.767 29.5455 34.3182 29.5455 31.4773C29.5455 28.6591 29.0852 26.233 28.1648 24.1989C27.2443 22.1534 25.8693 20.5852 24.0398 19.4943C22.2102 18.392 19.9318 17.8409 17.2045 17.8409H10.4545V45.25Z" fill="#FFF8F8"/>
</g>
<g filter="url(#filter1_d_67_12)">
<path d="M24 55H13.2273V20.0909H24.4773C27.8636 20.0909 30.7614 20.7898 33.1705 22.1875C35.5795 23.5739 37.4261 25.5682 38.7102 28.1705C39.9943 30.7614 40.6364 33.8636 40.6364 37.4773C40.6364 41.1136 39.9886 44.2443 38.6932 46.8693C37.3977 49.483 35.5114 51.4943 33.0341 52.9034C30.5568 54.3011 27.5455 55 24 55ZM17.4545 51.25H23.7273C26.6136 51.25 29.0057 50.6932 30.9034 49.5795C32.8011 48.4659 34.2159 46.8807 35.1477 44.8239C36.0795 42.767 36.5455 40.3182 36.5455 37.4773C36.5455 34.6591 36.0852 32.233 35.1648 30.1989C34.2443 28.1534 32.8693 26.5852 31.0398 25.4943C29.2102 24.392 26.9318 23.8409 24.2045 23.8409H17.4545V51.25Z" fill="#E11313"/>
</g>
</g>
<defs>
<filter id="filter0_d_67_12" x="2.22726" y="14.0908" width="35.4091" height="42.9092" filterUnits="userSpaceOnUse" color-interpolation-filters="sRGB">
<feFlood flood-opacity="0" result="BackgroundImageFix"/>
<feColorMatrix in="SourceAlpha" type="matrix" values="0 0 0 0 0 0 0 0 0 0 0 0 0 0 0 0 0 0 127 0" result="hardAlpha"/>
<feOffset dy="4"/>
<feGaussianBlur stdDeviation="2"/>
<feComposite in2="hardAlpha" operator="out"/>
<feColorMatrix type="matrix" values="0 0 0 0 0 0 0 0 0 0 0 0 0 0 0 0 0 0 0.25 0"/>
<feBlend mode="normal" in2="BackgroundImageFix" result="effect1_dropShadow_67_12"/>
<feBlend mode="normal" in="SourceGraphic" in2="effect1_dropShadow_67_12" result="shape"/>
</filter>
<filter id="filter1_d_67_12" x="9.22726" y="20.0908" width="35.4091" height="42.9092" filterUnits="userSpaceOnUse" color-interpolation-filters="sRGB">
<feFlood flood-opacity="0" result="BackgroundImageFix"/>
<feColorMatrix in="SourceAlpha" type="matrix" values="0 0 0 0 0 0 0 0 0 0 0 0 0 0 0 0 0 0 127 0" result="hardAlpha"/>
<feOffset dy="4"/>
<feGaussianBlur stdDeviation="2"/>
<feComposite in2="hardAlpha" operator="out"/>
<feColorMatrix type="matrix" values="0 0 0 0 0 0 0 0 0 0 0 0 0 0 0 0 0 0 0.25 0"/>
<feBlend mode="normal" in2="BackgroundImageFix" result="effect1_dropShadow_67_12"/>
<feBlend mode="normal" in="SourceGraphic" in2="effect1_dropShadow_67_12" result="shape"/>
</filter>
<clipPath id="clip0_67_12">
<rect width="44" height="58" fill="white"/>
</clipPath>
</defs>
</svg>
