<svg width="48" height="47" viewBox="0 0 48 47" fill="none" xmlns="http://www.w3.org/2000/svg">
<path d="M24.0002 0C10.747 0 0 10.7874 0 24.095C0 34.7407 6.87679 43.7726 16.4128 46.9586C17.6123 47.1816 18.0526 46.4359 18.0526 45.7995C18.0526 45.2249 18.0304 43.3269 18.02 41.3135C11.3431 42.7711 9.93424 38.4706 9.93424 38.4706C8.84249 35.6856 7.26945 34.945 7.26945 34.945C5.09192 33.4496 7.43359 33.4803 7.43359 33.4803C9.84363 33.6503 11.1126 35.9633 11.1126 35.9633C13.2532 39.6469 16.7272 38.5819 18.0967 37.9663C18.3121 36.409 18.9341 35.346 19.6205 34.7443C14.2897 34.1351 8.6859 32.069 8.6859 22.8365C8.6859 20.2059 9.62345 18.0565 11.1587 16.3691C10.9095 15.7622 10.088 13.3115 11.3912 9.99262C11.3912 9.99262 13.4066 9.34503 17.993 12.4624C19.9074 11.9286 21.9606 11.6608 24.0002 11.6517C26.0398 11.6608 28.0946 11.9286 30.0126 12.4624C34.5934 9.34503 36.606 9.99262 36.606 9.99262C37.9123 13.3115 37.0905 15.7622 36.8413 16.3691C38.3801 18.0565 39.3113 20.2059 39.3113 22.8365C39.3113 32.091 33.6968 34.1287 28.3525 34.7252C29.2133 35.4729 29.9804 36.9392 29.9804 39.1872C29.9804 42.4112 29.9526 45.0059 29.9526 45.7995C29.9526 46.4407 30.3846 47.192 31.6011 46.9554C41.132 43.7658 48 34.7371 48 24.095C48 10.7874 37.2546 0 24.0002 0Z" fill="#161514"/>
</svg>
