<svg width="47" height="48" viewBox="0 0 47 48" fill="none" xmlns="http://www.w3.org/2000/svg">
<ellipse cx="23.5" cy="24" rx="23.5" ry="24" fill="#F59124"/>
<path d="M31.2324 16.9896C29.3886 15.2635 27.1606 14.4004 24.3948 14.4004C21.5522 14.4004 19.0938 15.3419 17.0963 17.3035C15.0988 19.265 14.1 21.6973 14.1 24.6004C14.1 27.425 15.0219 29.7789 16.9426 31.8189C18.8633 33.8589 21.3986 34.8004 24.7021 34.8004C26.6228 34.8004 28.5435 34.4081 30.4642 33.545C31.0788 33.3096 31.3861 32.525 31.1556 31.8973C30.9251 31.2696 30.1568 30.9558 29.5422 31.1912C27.9289 31.8973 26.3155 32.2896 24.7789 32.2896C22.3205 32.2896 20.3998 31.505 19.0169 29.9358C17.634 28.3665 16.9426 26.5619 16.9426 24.5219C16.9426 22.2465 17.7109 20.3635 19.0938 18.8727C20.5535 17.3819 22.3205 16.5973 24.4716 16.5973C26.3923 16.5973 28.0825 17.225 29.4654 18.4804C30.8483 19.7358 31.4629 21.305 31.4629 23.1881C31.4629 24.4435 31.1556 25.5419 30.541 26.405C29.9263 27.2681 29.3117 27.6604 28.6203 27.6604C28.2362 27.6604 28.0825 27.5035 28.0825 27.0327C28.0825 26.7189 28.0825 26.3265 28.1593 25.9342L28.9276 19.5789H26.3155L26.1618 20.2065C25.4704 19.6573 24.7789 19.3435 24.0107 19.3435C22.7814 19.3435 21.7059 19.8927 20.784 20.9127C19.862 21.9327 19.4779 23.2665 19.4779 24.8358C19.4779 26.405 19.862 27.6604 20.7071 28.6804C21.4754 29.6219 22.4742 30.0927 23.5497 30.0927C24.5485 30.0927 25.3936 29.7004 26.085 28.8373C26.6228 29.6219 27.3911 30.0927 28.4667 30.0927C30.0032 30.0927 31.3092 29.3865 32.4616 28.0527C33.614 26.7189 34.1518 25.0712 34.1518 23.1096C33.9214 20.7558 32.9994 18.6373 31.2324 16.9896ZM25.1631 26.5619C24.7021 27.1896 24.1643 27.5035 23.4729 27.5035C23.0119 27.5035 22.7046 27.2681 22.3973 26.7973C22.09 26.3265 22.0132 25.7773 22.0132 25.0712C22.0132 24.2081 22.1668 23.5019 22.551 23.0312C22.9351 22.4819 23.3961 22.2465 23.9339 22.2465C24.3948 22.2465 24.8558 22.4035 25.2399 22.8742C25.624 23.2665 25.7777 23.8158 25.7777 24.4435C25.8545 25.2281 25.624 25.9342 25.1631 26.5619Z" fill="white"/>
</svg>
