<svg width="49" height="48" viewBox="0 0 49 48" fill="none" xmlns="http://www.w3.org/2000/svg">
<ellipse cx="24.5" cy="24" rx="24.5" ry="24" fill="#7294C7"/>
<path d="M36.5125 30.1386C36.5125 30.039 36.4108 30.039 36.4108 29.9393C36.004 29.1423 35.0887 28.1461 33.8682 27.0502C33.258 26.552 32.9529 26.1535 32.7495 25.9542C32.4444 25.5557 32.4444 25.2569 32.5461 24.8584C32.6478 24.5595 33.0546 24.0613 33.7665 23.1647C34.1733 22.6665 34.3767 22.3677 34.6818 22.0688C36.2074 20.0762 36.9193 18.7811 36.7159 18.1833L36.6142 18.0837C36.5125 17.9841 36.4108 17.8844 36.2074 17.8844C36.004 17.7848 35.6989 17.7848 35.3938 17.8844H31.5291C31.4274 17.8844 31.4274 17.8844 31.2239 17.8844C31.1222 17.8844 31.0206 17.8844 31.0206 17.8844H30.9188H30.8171L30.7154 17.984C30.6137 18.0837 30.6137 18.0837 30.6137 18.1833C30.2069 19.2792 29.6984 20.1758 29.1899 21.1721C28.8848 21.6703 28.5797 22.1684 28.2746 22.5669C27.9695 22.9654 27.766 23.2643 27.5626 23.4636C27.3592 23.6628 27.1558 23.7624 27.0541 23.9617C26.9524 24.0613 26.749 24.161 26.749 24.0613C26.6473 24.0613 26.5456 24.0613 26.5456 23.9617C26.4439 23.8621 26.3422 23.7624 26.2405 23.6628C26.1388 23.5632 26.1388 23.3639 26.0371 23.1647C26.0371 22.9654 26.0371 22.7662 26.0371 22.6665C26.0371 22.5669 26.0371 22.268 26.0371 22.0688C26.0371 21.7699 26.0371 21.5706 26.0371 21.471C26.0371 21.1721 26.0371 20.7736 26.0371 20.3751C26.0371 19.9766 26.0371 19.6777 26.0371 19.4785C26.0371 19.2792 26.0371 18.9803 26.0371 18.7811C26.0371 18.4822 26.0371 18.2829 26.0371 18.1833C26.0371 18.0837 25.9354 17.8844 25.9354 17.7848C25.8337 17.6852 25.732 17.5855 25.6303 17.4859C25.5286 17.3863 25.3252 17.3863 25.2235 17.2867C24.715 17.187 24.1047 17.0874 23.3928 17.0874C21.7656 17.0874 20.6468 17.187 20.24 17.3863C20.0366 17.4859 19.8332 17.5855 19.7315 17.7848C19.5281 17.984 19.5281 18.0837 19.6298 18.0837C20.1383 18.1833 20.5451 18.3826 20.7485 18.6814L20.8503 18.8807C20.952 18.9803 20.9519 19.1796 21.0536 19.4785C21.1553 19.7773 21.1553 20.0762 21.1553 20.4747C21.1553 21.0725 21.1553 21.6703 21.1553 22.0688C21.1553 22.5669 21.0536 22.8658 21.0536 23.1647C21.0536 23.4636 20.952 23.6628 20.8503 23.7624C20.7485 23.9617 20.7485 24.0613 20.6468 24.0613C20.6468 24.0613 20.6468 24.1609 20.5451 24.1609C20.4434 24.1609 20.3417 24.2606 20.1383 24.2606C20.0366 24.2606 19.8332 24.161 19.7315 24.0613C19.5281 23.9617 19.3247 23.7624 19.223 23.5632C19.0196 23.3639 18.8162 23.065 18.6128 22.6665C18.4094 22.268 18.1042 21.8695 17.9008 21.2718L17.6974 20.8733C17.5957 20.674 17.3923 20.2755 17.1889 19.7773C16.9855 19.2792 16.7821 18.8807 16.5787 18.3826C16.477 18.1833 16.3753 18.0837 16.2736 17.984H16.1719C16.1719 17.984 16.0702 17.8844 15.9685 17.8844C15.8668 17.8844 15.7651 17.7848 15.6634 17.7848H12.0021C11.5953 17.7848 11.3919 17.8844 11.2902 17.984L11.1884 18.0837C11.1884 18.0837 11.1884 18.1833 11.1884 18.2829C11.1884 18.3826 11.1884 18.4822 11.2902 18.6814C11.7987 19.877 12.4089 21.0725 13.0191 22.268C13.6293 23.3639 14.2395 24.3602 14.6464 25.0576C15.1549 25.755 15.5617 26.4524 16.0702 27.0502C16.5787 27.6479 16.8838 28.0464 16.9855 28.2457C17.1889 28.4449 17.2906 28.5446 17.3923 28.6442L17.6974 28.9431C17.9009 29.1423 18.206 29.4412 18.6128 29.7401C19.0196 30.039 19.5281 30.3379 20.0366 30.6367C20.5451 30.9356 21.1554 31.1349 21.7656 31.3341C22.4775 31.5334 23.0877 31.633 23.6979 31.5334H25.2235C25.5286 31.5334 25.732 31.4338 25.9354 31.2345L26.0371 31.1349C26.0371 31.0352 26.1388 31.0352 26.1388 30.9356C26.1388 30.836 26.1388 30.7364 26.1388 30.5371C26.1388 30.1386 26.1388 29.8397 26.2405 29.5408C26.3422 29.242 26.3422 29.0427 26.4439 28.8435C26.5456 28.6442 26.6473 28.5446 26.749 28.4449C26.8507 28.3453 26.9524 28.2457 26.9524 28.2457H27.0541C27.2575 28.1461 27.5626 28.2457 27.766 28.4449C28.0712 28.6442 28.3763 28.9431 28.5797 29.242C28.7831 29.5408 29.0882 29.8397 29.495 30.2382C29.9018 30.6367 30.2069 30.9356 30.4103 31.0353L30.7154 31.2345C30.9188 31.3341 31.1223 31.4338 31.4274 31.5334C31.7325 31.633 31.9359 31.633 32.1393 31.633L35.5972 31.5334C35.9023 31.5334 36.2074 31.4338 36.4108 31.3341C36.6142 31.2345 36.7159 31.1349 36.7159 30.9356C36.7159 30.836 36.7159 30.6367 36.7159 30.5371C36.5125 30.3379 36.5125 30.2382 36.5125 30.1386Z" fill="white"/>
</svg>
