<svg width="14" height="14" viewBox="0 0 14 14" fill="none" xmlns="http://www.w3.org/2000/svg">
<path d="M7 1.1665C3.77708 1.1665 1.16666 3.77692 1.16666 6.99984C1.16666 10.2228 3.77708 12.8332 7 12.8332C10.2229 12.8332 12.8333 10.2228 12.8333 6.99984C12.8333 3.77692 10.2229 1.1665 7 1.1665ZM7 11.6665C4.4275 11.6665 2.33333 9.57234 2.33333 6.99984C2.33333 4.42734 4.4275 2.33317 7 2.33317C9.5725 2.33317 11.6667 4.42734 11.6667 6.99984C11.6667 9.57234 9.5725 11.6665 7 11.6665ZM5.88 6.33775C5.91208 6.14817 5.97041 5.979 6.055 5.83025C6.13958 5.6815 6.25625 5.56192 6.39916 5.4715C6.53625 5.38692 6.70833 5.34025 6.92125 5.33734C7.06125 5.34025 7.18958 5.36359 7.30041 5.41317C7.42 5.46567 7.51916 5.53567 7.60375 5.62317C7.68833 5.71067 7.7525 5.81567 7.79916 5.93234C7.84583 6.049 7.87208 6.17442 7.87791 6.30567H8.92208C8.91333 6.0315 8.85791 5.78067 8.76166 5.55317C8.66541 5.32567 8.52541 5.13025 8.35041 4.964C8.17541 4.79775 7.96541 4.67234 7.72041 4.58192C7.47541 4.4915 7.20416 4.44484 6.90666 4.44484C6.5275 4.44484 6.19791 4.509 5.91791 4.64025C5.63791 4.7715 5.40458 4.94942 5.21791 5.17692C5.03125 5.40442 4.89125 5.66692 4.80083 5.96734C4.71041 6.26775 4.66666 6.58567 4.66666 6.92109V7.0815C4.66666 7.41984 4.71333 7.73775 4.80375 8.03817C4.89416 8.33859 5.03416 8.60109 5.22083 8.82567C5.4075 9.05025 5.64083 9.22817 5.92375 9.35942C6.20666 9.49067 6.53625 9.55484 6.91541 9.55484C7.18958 9.55484 7.44625 9.51109 7.68541 9.42067C7.92458 9.33025 8.13458 9.20775 8.31541 9.05025C8.49625 8.89275 8.64208 8.71192 8.74708 8.50192C8.85208 8.29192 8.91333 8.07025 8.92208 7.83109H7.87791C7.87208 7.95359 7.84291 8.06442 7.79041 8.16942C7.73791 8.27442 7.66791 8.36192 7.58041 8.43484C7.49291 8.50775 7.39083 8.56609 7.27416 8.60692C7.16333 8.64484 7.04666 8.66525 6.92125 8.66525C6.71125 8.65942 6.53916 8.61567 6.39916 8.52817C6.25333 8.43484 6.13666 8.31525 6.05208 8.1665C5.9675 8.01775 5.90916 7.84859 5.87708 7.65609C5.845 7.46359 5.83333 7.27692 5.83333 7.0815V6.92109C5.83333 6.72275 5.84791 6.52734 5.88 6.33775V6.33775Z" fill="white"/>
</svg>
