<?xml version="1.0" standalone="no"?>
<!DOCTYPE svg PUBLIC "-//W3C//DTD SVG 20010904//EN"
 "http://www.w3.org/TR/2001/REC-SVG-20010904/DTD/svg10.dtd">
<svg version="1.0" xmlns="http://www.w3.org/2000/svg"
 width="253.000000pt" height="253.000000pt" viewBox="0 0 253.000000 253.000000"
 preserveAspectRatio="xMidYMid meet">
<metadata>
Created by potrace 1.14, written by Peter Selinger 2001-2017
</metadata>
<g transform="translate(0.000000,253.000000) scale(0.100000,-0.100000)"
fill="#000000" stroke="none">
<path d="M1430 2173 c-35 -10 -60 -28 -66 -46 -6 -19 -8 -19 -19 -4 -32 44
-94 37 -116 -14 -6 -16 -44 -57 -83 -92 -39 -34 -79 -71 -88 -82 -26 -30 -49
-108 -53 -178 -10 -176 -5 -158 -39 -153 -42 6 -67 -15 -71 -58 -5 -48 21 -79
63 -78 28 1 32 -3 33 -26 1 -54 10 -85 35 -122 14 -20 34 -61 45 -89 l19 -51
-23 -9 c-30 -12 -58 -54 -62 -95 -2 -17 -11 -58 -22 -90 l-18 -59 -165 -66
c-190 -77 -257 -111 -305 -157 -38 -38 -45 -62 -31 -117 20 -84 129 -133 318
-144 82 -5 86 -7 81 -27 -5 -24 -11 -88 -16 -198 l-5 -78 443 0 442 0 -2 63
c-3 74 -16 224 -22 252 -2 11 -6 36 -8 55 -4 28 -3 31 6 17 12 -21 15 -34 34
-157 8 -52 15 -125 15 -162 l0 -68 74 0 73 0 -3 88 c-8 198 -23 294 -61 392
-14 36 -29 67 -32 70 -3 3 -12 17 -20 32 -12 24 -129 147 -157 166 -11 8 -60
172 -56 186 6 19 -43 96 -60 96 -28 0 -22 32 23 117 23 45 44 99 47 128 7 46
9 50 35 51 39 1 59 25 59 70 0 45 -29 75 -66 68 -30 -5 -32 1 -35 104 -1 45
-8 104 -15 132 -12 44 -11 50 6 68 57 56 50 158 -13 200 -19 12 -41 31 -49 40
-17 20 -47 31 -70 25z m-520 -1491 c0 -18 -42 -46 -67 -45 -81 3 -81 3 -8 33
39 15 71 29 73 29 1 1 2 -7 2 -17z"/>
</g>
</svg>
